<svg xmlns="http://www.w3.org/2000/svg" xmlns:xlink="http://www.w3.org/1999/xlink" width="500" zoomAndPan="magnify" viewBox="0 0 375 374.999991" height="500" preserveAspectRatio="xMidYMid meet" version="1.0"><defs><g/></defs><g fill="#c21988" fill-opacity="1"><g transform="translate(15.737735, 178.693203)"><g><path d="M 19.859375 0 L 4.171875 0 L 4.171875 -37.40625 L 47.15625 -37.40625 L 47.15625 -28.15625 L 19.859375 -28.15625 L 19.859375 -22.296875 L 42.9375 -22.296875 L 42.9375 -15.09375 L 19.859375 -15.09375 Z M 19.859375 0 "/></g></g></g><g fill="#c21988" fill-opacity="1"><g transform="translate(63.908699, 178.693203)"><g><path d="M 55.234375 0 L 40.40625 0 C 39.726562 -0.9375 39.25 -2.132812 38.96875 -3.59375 C 38.726562 -4.726562 38.363281 -5.835938 37.875 -6.921875 C 37.394531 -8.003906 36.554688 -8.90625 35.359375 -9.625 C 34.171875 -10.351562 32.40625 -10.742188 30.0625 -10.796875 L 19.859375 -10.796875 L 19.859375 0 L 4.171875 0 L 4.171875 -37.40625 L 29.6875 -37.40625 C 35.789062 -37.40625 40.710938 -36.945312 44.453125 -36.03125 C 48.203125 -35.125 50.9375 -33.691406 52.65625 -31.734375 C 54.375 -29.785156 55.234375 -27.238281 55.234375 -24.09375 C 55.234375 -21.46875 54.640625 -19.257812 53.453125 -17.46875 C 52.265625 -15.675781 50.382812 -14.257812 47.8125 -13.21875 C 50.300781 -12.1875 51.910156 -10.953125 52.640625 -9.515625 C 53.378906 -8.085938 53.835938 -6.515625 54.015625 -4.796875 C 54.191406 -3.265625 54.597656 -1.664062 55.234375 0 Z M 19.859375 -20.015625 L 28.828125 -20.046875 C 31.335938 -20.046875 33.3125 -20.15625 34.75 -20.375 C 36.195312 -20.601562 37.257812 -20.914062 37.9375 -21.3125 C 38.625 -21.707031 39.0625 -22.140625 39.25 -22.609375 C 39.445312 -23.085938 39.546875 -23.582031 39.546875 -24.09375 C 39.546875 -24.59375 39.445312 -25.082031 39.25 -25.5625 C 39.0625 -26.050781 38.625 -26.492188 37.9375 -26.890625 C 37.257812 -27.285156 36.195312 -27.59375 34.75 -27.8125 C 33.3125 -28.039062 31.335938 -28.15625 28.828125 -28.15625 L 19.859375 -28.15625 Z M 19.859375 -20.015625 "/></g></g></g><g fill="#c21988" fill-opacity="1"><g transform="translate(120.160141, 178.693203)"><g><path d="M 19.859375 0 L 4.171875 0 L 4.171875 -37.40625 L 19.859375 -37.40625 Z M 19.859375 0 "/></g></g></g><g fill="#c21988" fill-opacity="1"><g transform="translate(143.125233, 178.693203)"><g><path d="M 49.21875 0 L 4.171875 0 L 4.171875 -37.40625 L 47.15625 -37.40625 L 47.15625 -28.15625 L 19.859375 -28.15625 L 19.859375 -22.296875 L 42.9375 -22.296875 L 42.9375 -15.09375 L 19.859375 -15.09375 L 19.859375 -9.25 L 49.21875 -9.25 Z M 49.21875 0 "/></g></g></g><g fill="#c21988" fill-opacity="1"><g transform="translate(193.355409, 178.693203)"><g><path d="M 59.671875 0 L 41 0 L 19.859375 -25.3125 L 19.859375 0 L 4.171875 0 L 4.171875 -37.40625 L 22.84375 -37.40625 L 43.984375 -12.234375 L 43.984375 -37.40625 L 59.671875 -37.40625 Z M 59.671875 0 "/></g></g></g><g fill="#c21988" fill-opacity="1"><g transform="translate(256.123373, 178.693203)"><g><path d="M 29.203125 0 L 4.171875 0 L 4.171875 -37.40625 L 29.203125 -37.40625 C 39.429688 -37.40625 46.789062 -35.972656 51.28125 -33.109375 C 54.894531 -30.796875 56.953125 -27.648438 57.453125 -23.671875 C 57.679688 -21.953125 57.796875 -20.289062 57.796875 -18.6875 C 57.796875 -17.101562 57.6875 -15.445312 57.46875 -13.71875 C 57.25 -11.988281 56.671875 -10.3125 55.734375 -8.6875 C 54.796875 -7.0625 53.304688 -5.597656 51.265625 -4.296875 C 49.222656 -2.992188 46.425781 -1.953125 42.875 -1.171875 C 39.320312 -0.390625 34.765625 0 29.203125 0 Z M 27.71875 -9.25 C 35.6875 -9.25 40.191406 -11.265625 41.234375 -15.296875 C 41.515625 -16.429688 41.65625 -17.5625 41.65625 -18.6875 C 41.65625 -19.832031 41.507812 -20.96875 41.21875 -22.09375 C 40.9375 -23.21875 40.332031 -24.234375 39.40625 -25.140625 C 38.476562 -26.054688 37.082031 -26.785156 35.21875 -27.328125 C 33.363281 -27.878906 30.863281 -28.15625 27.71875 -28.15625 L 19.859375 -28.15625 L 19.859375 -9.25 Z M 27.71875 -9.25 "/></g></g></g><g fill="#c21988" fill-opacity="1"><g transform="translate(314.929295, 178.693203)"><g><path d="M 24.71875 0.8125 C 19.65625 0.8125 15.578125 0.269531 12.484375 -0.8125 C 9.390625 -1.90625 7.035156 -3.398438 5.421875 -5.296875 C 3.804688 -7.203125 2.71875 -9.398438 2.15625 -11.890625 L 18.828125 -11.890625 C 20.054688 -10.117188 22.019531 -9.234375 24.71875 -9.234375 C 27.40625 -9.234375 29.367188 -10.117188 30.609375 -11.890625 C 30.710938 -12.066406 30.765625 -12.222656 30.765625 -12.359375 C 30.765625 -12.828125 30.140625 -13.175781 28.890625 -13.40625 C 27.648438 -13.644531 25.796875 -13.828125 23.328125 -13.953125 C 20.222656 -14.085938 16.957031 -14.414062 13.53125 -14.9375 C 5.894531 -16.113281 2.078125 -19.179688 2.078125 -24.140625 C 2.078125 -24.554688 2.101562 -25 2.15625 -25.46875 C 2.71875 -27.957031 3.804688 -30.148438 5.421875 -32.046875 C 7.035156 -33.953125 9.390625 -35.445312 12.484375 -36.53125 C 15.578125 -37.625 19.65625 -38.171875 24.71875 -38.171875 C 29.769531 -38.171875 33.84375 -37.625 36.9375 -36.53125 C 40.03125 -35.445312 42.382812 -33.953125 44 -32.046875 C 45.625 -30.148438 46.710938 -27.957031 47.265625 -25.46875 L 30.609375 -25.46875 C 29.367188 -27.238281 27.40625 -28.125 24.71875 -28.125 C 22.019531 -28.125 20.054688 -27.238281 18.828125 -25.46875 C 18.734375 -25.332031 18.6875 -25.203125 18.6875 -25.078125 C 18.6875 -24.660156 19.28125 -24.351562 20.46875 -24.15625 C 21.664062 -23.957031 23.421875 -23.785156 25.734375 -23.640625 C 28.054688 -23.503906 30.53125 -23.28125 33.15625 -22.96875 C 35.78125 -22.65625 38.234375 -22.109375 40.515625 -21.328125 C 42.804688 -20.554688 44.59375 -19.414062 45.875 -17.90625 C 46.882812 -16.738281 47.390625 -15.265625 47.390625 -13.484375 C 47.390625 -12.972656 47.347656 -12.441406 47.265625 -11.890625 C 46.710938 -9.398438 45.625 -7.203125 44 -5.296875 C 42.382812 -3.398438 40.03125 -1.90625 36.9375 -0.8125 C 33.84375 0.269531 29.769531 0.8125 24.71875 0.8125 Z M 24.71875 0.8125 "/></g></g></g><path stroke-linecap="butt" transform="matrix(0.444167, 0, 0, 0.444167, -10.239079, 137.829865)" fill="none" stroke-linejoin="miter" d="M 103.205933 91.995955 L 67.878194 91.995955 L 67.878194 7.779267 L 164.65351 7.779267 L 164.65351 28.613575 L 103.205933 28.613575 L 103.205933 41.823001 L 155.146593 41.823001 L 155.146593 58.013783 L 103.205933 58.013783 Z M 291.303939 91.995955 L 257.911003 91.995955 C 256.38075 89.885261 255.307814 87.185331 254.6834 83.904961 C 254.129343 81.35454 253.311449 78.86568 252.212129 76.420792 C 251.121604 73.975905 249.230774 71.935568 246.548434 70.317369 C 243.874888 68.690376 239.890953 67.819715 234.605424 67.705386 L 211.660422 67.705386 L 211.660422 91.995955 L 176.323888 91.995955 L 176.323888 7.779267 L 233.78753 7.779267 C 247.515835 7.779267 258.605773 8.808231 267.030959 10.857363 C 275.46494 12.915289 281.621131 16.142892 285.490737 20.540171 C 289.369137 24.946245 291.303939 30.689091 291.303939 37.76871 C 291.303939 43.678653 289.967167 48.647578 287.284826 52.675486 C 284.602486 56.703393 280.363509 59.895818 274.57669 62.243965 C 280.170029 64.548139 283.802181 67.318425 285.464353 70.546028 C 287.126524 73.773631 288.155488 77.326632 288.542448 81.205032 C 288.938203 84.643704 289.852837 88.240678 291.303939 91.995955 Z M 211.660422 46.923845 L 231.852727 46.862283 C 237.481244 46.862283 241.922496 46.616035 245.176483 46.105951 C 248.421675 45.595867 250.813794 44.901097 252.361637 44.021641 C 253.909479 43.142185 254.894469 42.157195 255.325403 41.084258 C 255.756336 40.011322 255.967405 38.903208 255.967405 37.76871 C 255.967405 36.634212 255.756336 35.517303 255.325403 34.426778 C 254.894469 33.327458 253.909479 32.342468 252.361637 31.463012 C 250.813794 30.583556 248.421675 29.888786 245.176483 29.378702 C 241.922496 28.868617 237.481244 28.613575 231.852727 28.613575 L 211.660422 28.613575 Z M 338.302057 91.995955 L 302.974318 91.995955 L 302.974318 7.779267 L 338.302057 7.779267 Z M 456.096367 91.995955 L 354.677524 91.995955 L 354.677524 7.779267 L 451.461635 7.779267 L 451.461635 28.613575 L 390.005264 28.613575 L 390.005264 41.823001 L 441.945923 41.823001 L 441.945923 58.013783 L 390.005264 58.013783 L 390.005264 71.161647 L 456.096367 71.161647 Z M 592.719825 91.995955 L 550.699427 91.995955 L 503.094485 35.007219 L 503.094485 91.995955 L 467.766745 91.995955 L 467.766745 7.779267 L 509.787143 7.779267 L 557.383291 64.477783 L 557.383291 7.779267 L 592.719825 7.779267 Z M 665.424436 91.995955 L 609.077703 91.995955 L 609.077703 7.779267 L 665.424436 7.779267 C 688.474973 7.779267 705.04392 11.00687 715.140072 17.462076 C 723.275039 22.668454 727.909771 29.748073 729.044269 38.709728 C 729.554353 42.579333 729.809395 46.31702 729.809395 49.913995 C 729.809395 53.475791 729.563148 57.204683 729.079447 61.100672 C 728.586952 64.987867 727.285357 68.769527 725.174663 72.428063 C 723.055175 76.086599 719.704448 79.384559 715.104894 82.313146 C 710.50534 85.250529 704.208437 87.598676 696.205389 89.357587 C 688.202341 91.116499 677.947887 91.995955 665.424436 91.995955 Z M 662.082504 71.161647 C 680.040992 71.161647 690.189911 66.623655 692.538058 57.547671 C 693.162472 55.006044 693.479076 52.464417 693.479076 49.913995 C 693.479076 47.337189 693.153677 44.786767 692.511675 42.262729 C 691.860877 39.738691 690.497721 37.443311 688.404616 35.394179 C 686.311511 33.336253 683.171854 31.691671 678.985645 30.460432 C 674.799435 29.229194 669.162123 28.613575 662.082504 28.613575 L 644.414237 28.613575 L 644.414237 71.161647 Z M 787.721559 93.816428 C 776.341401 93.816428 767.159883 92.593985 760.203388 90.149097 C 753.238098 87.70421 747.934979 84.344689 744.294032 80.052945 C 740.653085 75.769995 738.208198 70.836248 736.959371 65.234115 L 774.459366 65.234115 C 777.238446 69.226844 781.662109 71.223209 787.721559 71.223209 C 793.789805 71.223209 798.213467 69.226844 800.992548 65.234115 C 801.221206 64.847154 801.34433 64.495372 801.34433 64.178768 C 801.34433 63.123421 799.945995 62.331911 797.149326 61.804237 C 794.343862 61.276564 790.175241 60.872014 784.617081 60.599383 C 777.607818 60.282779 770.255567 59.544036 762.54274 58.365565 C 745.366968 55.709608 736.78348 48.80588 736.78348 37.654381 C 736.78348 36.713363 736.836247 35.710784 736.959371 34.655437 C 738.208198 29.062098 740.653085 24.119556 744.294032 19.836606 C 747.934979 15.553657 753.238098 12.185341 760.203388 9.740454 C 767.159883 7.295567 776.341401 6.073123 787.721559 6.073123 C 799.110512 6.073123 808.283236 7.295567 815.248526 9.740454 C 822.213816 12.185341 827.516934 15.553657 831.157881 19.836606 C 834.798828 24.119556 837.243716 29.062098 838.492543 34.655437 L 800.992548 34.655437 C 798.213467 30.671502 793.789805 28.675137 787.721559 28.675137 C 781.662109 28.675137 777.238446 30.671502 774.459366 34.655437 C 774.265886 34.972041 774.169146 35.262261 774.169146 35.534892 C 774.169146 36.47591 775.505918 37.17068 778.188259 37.619203 C 780.870599 38.07652 784.819355 38.454686 790.043323 38.77129 C 795.26729 39.079099 800.834245 39.589184 806.744188 40.292748 C 812.654131 40.996313 818.177114 42.218756 823.32193 43.960079 C 828.466747 45.701401 832.48586 48.278207 835.379269 51.681701 C 837.648265 54.302479 838.791558 57.626822 838.791558 61.65473 C 838.791558 62.789228 838.686023 63.985287 838.492543 65.234115 C 837.243716 70.836248 834.798828 75.769995 831.157881 80.052945 C 827.516934 84.344689 822.213816 87.70421 815.248526 90.149097 C 808.283236 92.593985 799.110512 93.816428 787.721559 93.816428 Z M 787.721559 93.816428 " stroke="#092f4d" stroke-width="6.01025" stroke-opacity="1" stroke-miterlimit="4"/><g fill="#ffffff" fill-opacity="1"><g transform="translate(117.383908, 226.205943)"><g><path d="M 59.46875 0 L 47.125 0 L 38.40625 -22.9375 L 29.703125 0 L 17.34375 0 L 0.375 -35.28125 L 15.375 -35.28125 L 24.234375 -12.875 L 33.734375 -35.28125 L 43.078125 -35.28125 L 52.578125 -12.875 L 61.4375 -35.28125 L 76.453125 -35.28125 Z M 59.46875 0 "/></g></g></g><g fill="#ffffff" fill-opacity="1"><g transform="translate(193.180583, 226.205943)"><g><path d="M 26.703125 0.765625 C 17.972656 0.765625 11.550781 -1.03125 7.4375 -4.625 C 3.789062 -7.8125 1.96875 -12.148438 1.96875 -17.640625 C 1.96875 -23.117188 3.789062 -27.453125 7.4375 -30.640625 C 11.550781 -34.222656 17.972656 -36.015625 26.703125 -36.015625 C 35.421875 -36.015625 41.84375 -34.222656 45.96875 -30.640625 C 49.601562 -27.453125 51.421875 -23.117188 51.421875 -17.640625 C 51.421875 -12.148438 49.601562 -7.8125 45.96875 -4.625 C 41.84375 -1.03125 35.421875 0.765625 26.703125 0.765625 Z M 26.703125 -8.703125 C 30.273438 -8.703125 32.894531 -9.726562 34.5625 -11.78125 C 35.914062 -13.4375 36.59375 -15.390625 36.59375 -17.640625 C 36.59375 -19.890625 35.914062 -21.832031 34.5625 -23.46875 C 32.894531 -25.539062 30.273438 -26.578125 26.703125 -26.578125 C 23.117188 -26.578125 20.484375 -25.539062 18.796875 -23.46875 C 17.453125 -21.832031 16.78125 -19.890625 16.78125 -17.640625 C 16.78125 -15.390625 17.453125 -13.4375 18.796875 -11.78125 C 20.484375 -9.726562 23.117188 -8.703125 26.703125 -8.703125 Z M 26.703125 -8.703125 "/></g></g></g><g fill="#ffffff" fill-opacity="1"><g transform="translate(245.557046, 226.205943)"><g><path d="M 52.140625 0 L 38.140625 0 C 37.492188 -0.882812 37.039062 -2.015625 36.78125 -3.390625 C 36.550781 -4.460938 36.207031 -5.507812 35.75 -6.53125 C 35.289062 -7.5625 34.5 -8.414062 33.375 -9.09375 C 32.25 -9.769531 30.582031 -10.132812 28.375 -10.1875 L 18.75 -10.1875 L 18.75 0 L 3.9375 0 L 3.9375 -35.3125 L 28.03125 -35.3125 C 33.78125 -35.3125 38.421875 -34.878906 41.953125 -34.015625 C 45.492188 -33.148438 48.078125 -31.796875 49.703125 -29.953125 C 51.328125 -28.109375 52.140625 -25.703125 52.140625 -22.734375 C 52.140625 -20.253906 51.578125 -18.171875 50.453125 -16.484375 C 49.328125 -14.796875 47.550781 -13.457031 45.125 -12.46875 C 47.46875 -11.5 48.988281 -10.335938 49.6875 -8.984375 C 50.382812 -7.640625 50.816406 -6.15625 50.984375 -4.53125 C 51.148438 -3.082031 51.535156 -1.570312 52.140625 0 Z M 18.75 -18.890625 L 27.21875 -18.921875 C 29.570312 -18.921875 31.429688 -19.023438 32.796875 -19.234375 C 34.160156 -19.453125 35.164062 -19.742188 35.8125 -20.109375 C 36.457031 -20.484375 36.867188 -20.894531 37.046875 -21.34375 C 37.234375 -21.789062 37.328125 -22.253906 37.328125 -22.734375 C 37.328125 -23.210938 37.234375 -23.679688 37.046875 -24.140625 C 36.867188 -24.597656 36.457031 -25.007812 35.8125 -25.375 C 35.164062 -25.75 34.160156 -26.039062 32.796875 -26.25 C 31.429688 -26.46875 29.570312 -26.578125 27.21875 -26.578125 L 18.75 -26.578125 Z M 18.75 -18.890625 "/></g></g></g><g fill="#ffffff" fill-opacity="1"><g transform="translate(298.646947, 226.205943)"><g><path d="M 61.90625 0 L 42.671875 0 L 27.515625 -11.8125 L 18.75 -5.828125 L 18.75 0 L 3.9375 0 L 3.9375 -35.3125 L 18.75 -35.3125 L 18.75 -18.96875 L 42.515625 -35.3125 L 61.90625 -35.3125 L 36.609375 -18.03125 Z M 61.90625 0 "/></g></g></g><path stroke-linecap="butt" transform="matrix(0.447104, 0, 0, 0.447104, 90.103607, 191.778971)" fill="none" stroke-linejoin="miter" d="M 194.022078 77.002433 L 166.396345 77.002433 L 146.913302 25.708735 L 127.438995 77.002433 L 99.813263 77.002433 L 61.84317 -1.908261 L 95.40992 -1.908261 L 115.216225 48.223445 L 136.4641 -1.908261 L 157.37124 -1.908261 L 178.610379 48.223445 L 198.42542 -1.908261 L 231.99217 -1.908261 Z M 290.249091 78.706108 C 270.731101 78.706108 256.367817 74.687184 247.159239 66.658073 C 239.01655 59.537589 234.945206 49.831014 234.945206 37.547086 C 234.945206 25.289369 239.01655 15.609005 247.159239 8.48852 C 256.367817 0.450673 270.731101 -3.559514 290.249091 -3.559514 C 309.767082 -3.559514 324.130366 0.450673 333.338943 8.48852 C 341.481632 15.609005 345.552977 25.289369 345.552977 37.547086 C 345.552977 49.831014 341.481632 59.537589 333.338943 66.658073 C 324.130366 74.687184 309.767082 78.706108 290.249091 78.706108 Z M 290.249091 57.51939 C 298.251991 57.51939 304.114378 55.230351 307.862461 50.643536 C 310.867917 46.939136 312.370645 42.570741 312.370645 37.547086 C 312.370645 32.514695 310.867917 28.17251 307.862461 24.503058 C 304.114378 19.881295 298.251991 17.566046 290.249091 17.566046 C 282.254928 17.566046 276.366331 19.881295 272.5833 24.503058 C 269.577844 28.17251 268.075116 32.514695 268.075116 37.547086 C 268.075116 42.570741 269.577844 46.939136 272.5833 50.643536 C 276.366331 55.230351 282.254928 57.51939 290.249091 57.51939 Z M 464.2947 77.002433 L 432.982042 77.002433 C 431.557945 75.019182 430.544477 72.485513 429.959112 69.410162 C 429.443642 67.025018 428.674804 64.683558 427.643863 62.385782 C 426.621658 60.096743 424.84809 58.192123 422.340631 56.663184 C 419.824435 55.142983 416.093825 54.330461 411.140065 54.216883 L 389.621349 54.216883 L 389.621349 77.002433 L 356.491439 77.002433 L 356.491439 -1.969418 L 410.371227 -1.969418 C 423.249257 -1.969418 433.637301 -1.008371 441.544097 0.922459 C 449.450893 2.844553 455.217174 5.87622 458.851679 9.999985 C 462.477448 14.132487 464.2947 19.51435 464.2947 26.154311 C 464.2947 31.693436 463.036602 36.350146 460.529143 40.133176 C 458.012948 43.90747 454.046445 46.895452 448.612161 49.097124 C 453.862972 51.263848 457.261584 53.858675 458.825469 56.890341 C 460.380618 59.913271 461.341665 63.241988 461.70861 66.876493 C 462.075555 70.100369 462.940498 73.481507 464.2947 77.002433 Z M 389.621349 34.73384 L 408.553975 34.681419 C 413.830997 34.681419 417.998446 34.445526 421.047586 33.965002 C 424.087989 33.493215 426.333344 32.837956 427.783651 32.016698 C 429.233959 31.186703 430.160059 30.26934 430.561951 29.264609 C 430.963843 28.251141 431.173526 27.2202 431.173526 26.154311 C 431.173526 25.088423 430.963843 24.040008 430.561951 23.017803 C 430.160059 21.986862 429.233959 21.060762 427.783651 20.239504 C 426.333344 19.409509 424.087989 18.762986 421.047586 18.282463 C 417.998446 17.810676 413.830997 17.566046 408.553975 17.566046 L 389.621349 17.566046 Z M 604.887137 77.002433 L 561.849706 77.002433 L 527.950958 50.582378 L 508.363073 63.958405 L 508.363073 77.002433 L 475.233162 77.002433 L 475.233162 -1.969418 L 508.363073 -1.969418 L 508.363073 34.576577 L 561.526445 -1.969418 L 604.887137 -1.969418 L 548.316417 36.66467 Z M 604.887137 77.002433 " stroke="#737373" stroke-width="5.6354" stroke-opacity="1" stroke-miterlimit="4"/><path stroke-linecap="butt" transform="matrix(0.52552, -0.164662, 0.164662, 0.52552, -5.211045, 206.158887)" fill="none" stroke-linejoin="miter" d="M 48.296036 13.299139 C 47.479608 12.441244 47.068077 11.643319 47.063564 10.898594 C 47.063293 10.140332 47.286294 9.570958 47.72368 9.19512 C 48.176724 8.816756 48.773622 8.453733 49.519024 8.114942 C 50.277556 7.757966 51.081348 7.422605 51.923631 7.106736 C 52.776924 6.779452 53.704671 6.475496 54.702631 6.208407 C 55.704832 5.92778 56.561871 5.683433 57.266977 5.473245 C 59.273907 4.92765 60.549875 4.651039 61.09953 4.652302 C 61.649184 4.653565 61.922455 4.754056 61.923989 4.962663 C 61.920876 5.162382 61.74593 5.412323 61.390264 5.717136 C 61.038839 6.008411 60.860149 6.175415 60.85884 6.227036 C 60.857532 6.278658 60.947644 6.29946 61.118168 6.300859 C 61.29758 6.29761 61.54134 6.255058 61.846919 6.157544 C 71.448156 4.148573 80.733392 3.148121 89.711515 3.151541 C 98.68287 3.15284 104.903157 4.603838 108.356718 7.507061 C 108.459466 7.606153 108.780838 7.885244 109.331847 8.332918 C 110.58512 9.528385 111.212117 10.207995 111.21496 10.364981 C 111.218435 10.804623 110.6885 11.025099 109.640813 11.023882 C 97.479424 11.026512 87.398698 11.458088 79.393988 12.30972 C 78.590873 12.310803 78.187104 12.437015 78.18733 12.697245 C 78.186834 12.79372 78.366969 12.954225 78.716725 13.190178 C 79.072843 13.405825 79.249458 13.743622 79.248691 14.196802 C 79.252166 14.636444 78.927726 15.055104 78.280018 15.461671 L 68.736275 24.23792 C 68.345954 24.487275 68.152418 24.701659 68.151019 24.872182 C 68.14962 25.042706 68.321768 25.13381 68.664935 25.129839 L 69.869292 24.986885 C 72.167498 24.792715 74.339537 24.692808 76.392179 24.689286 C 83.905399 24.694558 87.655243 26.367523 87.655247 29.712423 C 87.657593 29.965884 87.613462 30.130451 87.529622 30.208244 C 87.454671 30.28139 86.80764 30.35368 85.588527 30.425112 C 84.369415 30.496544 80.260342 31.037584 73.279088 32.038936 C 66.306723 33.035641 62.272015 33.718911 61.172436 34.07309 C 60.072857 34.427268 59.218165 34.925076 58.606241 35.573282 C 52.159262 44.026486 48.530267 49.274445 47.723905 51.32605 C 47.679052 51.326862 47.592008 51.723275 47.469543 52.517411 C 47.342836 53.325084 47.240134 53.724025 47.141538 53.730297 C 46.688359 53.72953 45.787414 53.283707 44.448001 52.410606 C 43.092929 51.540032 42.410158 50.753749 42.417467 50.04246 C 42.411646 49.349357 42.495936 48.677056 42.67034 48.025557 C 42.842622 47.380826 43.067022 46.640929 43.348189 45.814755 C 43.615818 44.98434 44.437071 43.383388 45.818718 41.01402 C 47.204606 38.631116 48.917913 36.365668 50.965408 34.219798 C 51.064004 34.213526 51.11188 34.131897 51.113279 33.961374 C 51.11215 33.775192 50.810948 33.123333 50.196133 32.001553 C 49.596977 30.877246 49.297895 30.218618 49.298887 30.025668 C 49.300917 29.022834 49.64837 28.388392 50.343368 28.115572 C 51.054025 27.840225 53.132386 27.398776 56.59199 26.795466 L 57.564907 26.632026 L 57.638955 26.632928 C 58.040513 26.632386 58.81529 26.057507 59.961165 24.915059 C 67.714889 18.008566 72.271994 14.210978 73.62571 13.520175 C 74.130285 13.26202 74.380091 13.057834 74.379775 12.916506 C 74.38158 12.768409 74.225496 12.697204 73.922534 12.691474 C 73.617452 12.692512 73.364397 12.717285 73.170138 12.767914 C 64.671368 13.962759 57.541475 14.560749 51.793998 14.566125 C 50.293131 14.564141 49.125595 14.138849 48.296036 13.299139 Z M 88.030818 34.96638 C 90.775884 33.061381 93.648425 31.010496 96.655209 28.815846 C 95.053625 27.711937 94.029176 26.6402 93.577214 25.591746 C 93.420498 25.237885 93.337334 24.981401 93.337018 24.840073 C 93.339048 23.837239 93.663669 23.180776 94.313001 22.863915 C 94.968696 22.526749 96.029198 22.368453 97.478443 22.369128 C 98.030218 22.363623 99.653281 23.043142 102.349751 24.400917 C 105.050464 25.745156 106.758585 26.414161 107.478762 26.416823 C 108.214598 26.416957 109.226907 26.198962 110.520339 25.771728 C 111.827307 25.348735 112.868812 25.132455 113.633843 25.134304 C 114.414531 25.133627 114.976324 25.309654 115.319221 25.662388 C 116.578496 27.313154 117.209058 28.313505 117.208788 28.67021 C 117.210638 29.020146 117.043274 29.317061 116.710937 29.547419 C 116.396378 29.768482 115.372698 30.473499 113.637775 31.669239 C 111.91639 32.869221 110.231374 34.095465 108.580607 35.354739 C 106.934082 36.600477 105.382228 37.994807 103.929691 39.54662 C 102.477154 41.098433 101.750525 42.349945 101.749804 43.301157 C 101.747999 43.449254 101.872767 43.525513 102.132996 43.525287 C 104.831767 43.523524 113.937179 38.044028 129.447112 27.093568 C 129.790279 27.089597 129.95972 27.402847 129.957555 28.026549 C 129.955389 28.650252 127.981943 30.797024 124.019436 34.476161 C 120.081476 38.148123 115.61507 41.751136 110.629108 45.280553 C 105.665572 48.809564 102.049795 50.575537 99.804204 50.578066 C 96.304439 50.574144 94.549749 48.820179 94.546902 45.318293 C 94.546223 43.422638 95.186123 41.593901 96.455186 39.821071 C 97.735259 38.036826 100.431185 35.648144 104.531546 32.644015 C 103.676809 32.64379 102.524344 32.431348 101.069504 31.997799 C 99.619311 31.57314 98.694722 31.060443 98.302504 30.46183 C 96.997522 31.613889 94.744126 33.539148 91.544844 36.253265 C 90.800977 36.800663 89.823323 37.074115 88.611881 37.07362 C 87.413977 37.077367 86.820462 36.883966 86.820326 36.504835 C 86.82019 36.125704 87.225944 35.613593 88.030818 34.96638 Z M 125.371315 45.700054 C 126.984314 45.700008 128.962003 44.654665 131.308625 42.55049 C 133.662015 40.448435 134.88979 38.997159 134.985181 38.19454 C 134.390628 37.696056 133.748153 36.78117 133.060282 35.465538 C 132.392312 34.133842 132.030192 33.462895 131.985339 33.463707 C 130.430054 34.916428 129.056123 36.596934 127.863546 38.505225 C 125.954041 41.705234 125.004546 43.905251 125.001524 45.101035 C 125.002065 45.502593 125.124622 45.704522 125.371315 45.700054 Z M 141.583368 27.313489 C 141.078567 27.311414 140.040447 28.086237 138.469008 29.63796 C 136.890801 31.187562 136.107181 32.265122 136.10673 32.859629 C 136.100684 33.021263 136.249818 33.32815 136.540597 33.77605 C 136.849155 34.214654 137.084251 34.436979 137.241237 34.434136 C 138.080316 34.436888 139.03992 33.41447 140.115807 31.380418 C 141.191288 29.32394 141.726186 28.138715 141.726862 27.804437 C 141.725418 27.476928 141.679843 27.313985 141.583368 27.313489 Z M 141.729625 37.000058 C 143.134016 37.001545 145.323969 36.156507 148.301603 34.458176 C 151.283479 32.746307 153.897641 31.045584 156.13944 29.347118 L 159.515112 26.71057 C 159.963373 27.059151 160.193235 27.487964 160.191159 27.992765 C 160.191205 28.490797 159.968293 28.941269 159.515656 29.34206 C 151.257402 37.00474 145.004767 40.828547 140.760277 40.829138 C 140.461963 40.832297 140.012213 40.77314 139.400016 40.663084 C 133.762242 47.221669 128.91314 50.504077 124.854831 50.50354 C 122.15764 50.096977 120.455655 49.147436 119.74423 47.646029 C 119.353817 46.899319 119.159467 45.953883 119.163302 44.802953 C 119.159463 41.494016 121.062334 37.556051 124.856257 32.991583 C 128.654422 28.413578 133.42573 25.04733 139.183719 22.897079 C 139.681751 22.897034 140.056145 23.00691 140.30013 23.224587 C 140.557652 23.446506 140.777586 23.574884 140.973469 23.613961 C 141.182483 23.634853 141.443209 23.538152 141.764536 23.319211 C 142.096873 23.088853 142.531958 22.957587 143.081206 22.936423 C 143.632575 22.908491 144.203573 23.221199 144.80309 23.8699 C 145.611215 24.517066 146.015977 25.312871 146.013136 26.270851 C 146.014402 29.066097 144.582759 32.638829 141.729625 37.000058 Z M 183.751317 44.346682 C 183.75055 44.799861 184.044036 45.025616 184.616117 45.026473 C 185.188198 45.027329 186.240803 44.680732 187.767163 43.984558 C 189.290997 43.272727 191.115536 42.194264 193.245428 40.758058 C 195.366025 39.304073 198.191185 37.238343 201.705252 34.563394 C 205.237097 31.879149 208.325601 29.613475 210.977531 27.768491 C 211.423671 28.123841 211.653533 28.552653 211.653579 29.050686 C 211.648976 29.539829 211.428186 29.983532 210.973427 30.391092 C 209.372794 31.9411 207.346191 33.877956 204.889377 36.215196 C 202.452463 38.536373 198.712958 41.646136 193.682278 45.555496 C 188.662608 49.45344 185.153324 51.401442 183.147656 51.397383 C 179.289066 51.39996 177.360693 49.346282 177.360418 45.24312 C 177.36159 43.697401 177.967061 42.073436 179.176831 40.371225 L 182.40111 35.94046 C 182.691301 35.48877 182.841293 35.223576 182.842195 35.149528 C 182.834208 35.080127 182.694505 35.17015 182.398538 35.42677 C 173.688683 42.680357 168.141516 46.933336 165.745618 48.174697 C 165.341759 48.419811 164.843636 48.538758 164.247008 48.545076 C 162.582387 48.543814 161.754453 47.793811 161.752195 46.306482 C 161.75215 45.808449 161.880707 45.350712 162.140395 44.948928 C 165.045874 40.752763 167.278376 37.921551 168.824771 36.473478 L 170.089232 35.189792 C 170.186203 35.093813 170.233673 34.989758 170.234169 34.893283 C 170.234666 34.796808 170.189 34.752767 170.085757 34.75015 C 169.989282 34.749653 169.847457 34.846444 169.651394 35.04517 L 161.606169 41.340009 C 156.952273 44.995772 154.41198 46.935201 153.989936 47.167183 C 153.572134 47.385628 153.188265 47.495776 152.831561 47.495506 C 152.481625 47.497356 151.930436 47.287486 151.189005 46.854477 C 150.438684 46.426117 150.070924 45.93923 150.065418 45.387455 C 150.065102 45.246127 150.142264 45.047311 150.285893 44.802423 C 155.183997 39.394634 158.764574 34.941713 161.025504 31.450428 C 161.963042 29.95281 162.79129 28.614208 163.514896 27.443513 C 164.244864 26.252512 164.826465 25.41641 165.252524 24.910661 C 165.683232 24.413801 166.140833 24.163228 166.647755 24.158534 C 167.145787 24.158489 167.709611 24.446649 168.332457 25.020896 C 168.955303 25.595142 169.266704 26.190732 169.262011 26.798777 C 169.268329 27.395405 169.064325 28.022763 168.661008 28.669434 C 166.961915 31.719812 165.635997 33.69782 164.683251 34.603458 C 164.540119 34.75187 164.461738 34.883407 164.468417 35.004429 C 164.466206 35.130099 164.514398 35.189798 164.610873 35.190294 L 164.833921 35.118953 L 174.88576 28.137191 C 177.440719 26.388186 178.970599 25.51472 179.468632 25.514675 C 179.966664 25.514629 180.508151 25.684294 181.081677 26.012661 C 181.652675 26.325369 181.939708 26.69033 181.94025 27.091888 C 181.940792 27.493446 181.820312 27.901682 181.576282 28.300938 L 176.700922 34.964617 C 176.044866 35.777389 175.711942 36.223124 175.709325 36.326367 C 175.708829 36.422842 175.738836 36.46941 175.78369 36.468598 L 176.172296 36.248438 C 182.423984 32.000647 186.662244 29.054593 188.882429 27.401386 C 191.104734 25.74141 192.445184 24.689661 192.892361 24.235127 C 193.598956 23.735514 194.191117 23.482504 194.651065 23.485392 C 195.126671 23.485752 195.443982 23.540577 195.602999 23.649867 L 197.252279 24.909951 C 197.757306 25.172255 198.005443 25.495297 198.003864 25.903623 C 198.008647 26.291644 197.90008 26.614415 197.693819 26.869411 C 194.750164 30.072444 192.389238 32.625557 190.604274 34.526629 C 188.834968 36.425175 187.543342 37.819279 186.738694 38.726722 C 185.443143 40.275691 184.642466 41.526301 184.336662 42.478552 C 183.947695 43.174317 183.752579 43.797028 183.751317 44.346682 Z M 183.751317 44.346682 " stroke="#dfe410" stroke-width="5.158443" stroke-opacity="1" stroke-miterlimit="4"/></svg>